<svg width="105" height="91" viewBox="0 0 105 91" fill="none" xmlns="http://www.w3.org/2000/svg">
<path opacity="0.2" d="M88.5938 17.0625V31.2812H16.4062V17.0625C16.4062 16.3083 16.752 15.585 17.3673 15.0517C17.9827 14.5184 18.8173 14.2188 19.6875 14.2188H85.3125C86.1827 14.2188 87.0173 14.5184 87.6327 15.0517C88.248 15.585 88.5938 16.3083 88.5938 17.0625Z" fill="black"/>
<path d="M85.3125 11.375H75.4688V8.53125C75.4688 7.77704 75.1231 7.05372 74.5077 6.52041C73.8923 5.98711 73.0577 5.6875 72.1875 5.6875C71.3173 5.6875 70.4827 5.98711 69.8673 6.52041C69.2519 7.05372 68.9062 7.77704 68.9062 8.53125V11.375H36.0938V8.53125C36.0938 7.77704 35.748 7.05372 35.1327 6.52041C34.5173 5.98711 33.6827 5.6875 32.8125 5.6875C31.9423 5.6875 31.1077 5.98711 30.4923 6.52041C29.877 7.05372 29.5312 7.77704 29.5312 8.53125V11.375H19.6875C17.947 11.375 16.2778 11.9742 15.0471 13.0408C13.8164 14.1074 13.125 15.5541 13.125 17.0625V73.9375C13.125 75.4459 13.8164 76.8926 15.0471 77.9592C16.2778 79.0258 17.947 79.625 19.6875 79.625H85.3125C87.053 79.625 88.7222 79.0258 89.9529 77.9592C91.1836 76.8926 91.875 75.4459 91.875 73.9375V17.0625C91.875 15.5541 91.1836 14.1074 89.9529 13.0408C88.7222 11.9742 87.053 11.375 85.3125 11.375ZM29.5312 17.0625V19.9062C29.5312 20.6605 29.877 21.3838 30.4923 21.9171C31.1077 22.4504 31.9423 22.75 32.8125 22.75C33.6827 22.75 34.5173 22.4504 35.1327 21.9171C35.748 21.3838 36.0938 20.6605 36.0938 19.9062V17.0625H68.9062V19.9062C68.9062 20.6605 69.2519 21.3838 69.8673 21.9171C70.4827 22.4504 71.3173 22.75 72.1875 22.75C73.0577 22.75 73.8923 22.4504 74.5077 21.9171C75.1231 21.3838 75.4688 20.6605 75.4688 19.9062V17.0625H85.3125V28.4375H19.6875V17.0625H29.5312ZM85.3125 73.9375H19.6875V34.125H85.3125V73.9375ZM45.9375 42.6562V65.4062C45.9375 66.1605 45.5918 66.8838 44.9764 67.4171C44.3611 67.9504 43.5265 68.25 42.6562 68.25C41.786 68.25 40.9514 67.9504 40.3361 67.4171C39.7207 66.8838 39.375 66.1605 39.375 65.4062V47.256L37.5621 48.0452C36.7832 48.3827 35.8816 48.4382 35.0555 48.1995C34.2294 47.9609 33.5465 47.4476 33.157 46.7726C32.7676 46.0976 32.7035 45.3161 32.9789 44.6002C33.2543 43.8842 33.8465 43.2924 34.6254 42.9548L41.1879 40.1111C41.6883 39.8941 42.2445 39.7916 42.8035 39.8133C43.3626 39.8351 43.9059 39.9804 44.3819 40.2355C44.8578 40.4905 45.2506 40.8468 45.5229 41.2705C45.7952 41.6942 45.9379 42.1713 45.9375 42.6562ZM70.2023 53.4803L62.3438 62.5625H68.9062C69.7765 62.5625 70.6111 62.8621 71.2264 63.3954C71.8418 63.9287 72.1875 64.652 72.1875 65.4062C72.1875 66.1605 71.8418 66.8838 71.2264 67.4171C70.6111 67.9504 69.7765 68.25 68.9062 68.25H55.7812C55.1719 68.25 54.5746 68.1029 54.0562 67.8253C53.5378 67.5476 53.1189 67.1504 52.8464 66.678C52.5739 66.2057 52.4585 65.6768 52.5133 65.1509C52.568 64.6249 52.7906 64.1225 53.1563 63.7L64.9605 50.0607C65.229 49.7509 65.4217 49.3968 65.5266 49.0202C65.6315 48.6436 65.6465 48.2523 65.5707 47.8705C65.4949 47.4886 65.3299 47.1243 65.0857 46.7997C64.8416 46.4751 64.5235 46.1972 64.151 45.983C63.7784 45.7688 63.3593 45.6229 62.9193 45.5541C62.4794 45.4854 62.0279 45.4952 61.5925 45.5832C61.1571 45.6711 60.747 45.8352 60.3874 46.0654C60.0278 46.2956 59.7263 46.587 59.5014 46.9219C59.2923 47.2556 59.0082 47.5496 58.6658 47.7867C58.3235 48.0237 57.9298 48.1989 57.5081 48.3019C57.0864 48.405 56.6451 48.4337 56.2103 48.3866C55.7755 48.3394 55.3561 48.2173 54.9766 48.0273C54.5972 47.8374 54.2655 47.5835 54.0011 47.2807C53.7368 46.9778 53.545 46.6322 53.4373 46.2641C53.3296 45.896 53.308 45.5129 53.3738 45.1375C53.4397 44.762 53.5916 44.4018 53.8207 44.0781C54.9046 42.4525 56.577 41.1822 58.5786 40.4641C60.5802 39.7459 62.7992 39.6201 64.8917 40.1061C66.9843 40.5921 68.8334 41.6627 70.1524 43.1521C71.4715 44.6414 72.1868 46.4663 72.1875 48.3438C72.1945 50.1984 71.4968 52.0034 70.2023 53.4803Z" fill="black"/>
</svg>
