<svg width="105" height="91" viewBox="0 0 105 91" fill="none" xmlns="http://www.w3.org/2000/svg">
<path d="M31.875 30.875C35.6046 30.875 39.1815 29.591 41.8187 27.3054C44.4559 25.0198 45.9375 21.9198 45.9375 18.6875C45.9375 15.4552 44.4559 12.3552 41.8187 10.0696C39.1815 7.78404 35.6046 6.5 31.875 6.5C28.1454 6.5 24.5685 7.78404 21.9313 10.0696C19.2941 12.3552 17.8125 15.4552 17.8125 18.6875C17.8125 21.9198 19.2941 25.0198 21.9313 27.3054C24.5685 29.591 28.1454 30.875 31.875 30.875ZM7.5 42.1915C7.5 38.6328 10.8263 35.75 14.9325 35.75H35.9325C34.289 39.3435 34.261 43.3407 35.8538 46.9513C37.4466 50.562 40.5445 53.5233 44.535 55.25H35.5612C33.3448 55.2488 31.178 55.819 29.3364 56.8878C27.4947 57.9567 26.0615 59.4761 25.2188 61.2528C17.7 60.047 13.1925 56.7938 10.6163 53.1603C7.5 48.7825 7.5 44.2585 7.5 43.4785V42.1915ZM60.4612 55.25H69.4425C74.1113 55.25 78.1125 57.7298 79.785 61.2528C87.3037 60.047 91.8112 56.7938 94.3875 53.1603C97.5 48.7793 97.5 44.2552 97.5 43.4753V42.1915C97.501 41.3454 97.3094 40.5073 96.9362 39.7254C96.5631 38.9435 96.0156 38.2331 95.3253 37.6348C94.6349 37.0364 93.8152 36.562 92.913 36.2386C92.0108 35.9152 91.0438 35.7491 90.0675 35.75H69.0675C70.711 39.3435 70.739 43.3407 69.1462 46.9513C67.5534 50.562 64.4555 53.5233 60.465 55.25M87.1875 18.6875C87.1875 21.9198 85.7059 25.0198 83.0687 27.3054C80.4315 29.591 76.8546 30.875 73.125 30.875C69.3954 30.875 65.8185 29.591 63.1813 27.3054C60.5441 25.0198 59.0625 21.9198 59.0625 18.6875C59.0625 15.4552 60.5441 12.3552 63.1813 10.0696C65.8185 7.78404 69.3954 6.5 73.125 6.5C76.8546 6.5 80.4315 7.78404 83.0687 10.0696C85.7059 12.3552 87.1875 15.4552 87.1875 18.6875ZM28.125 64.9415C28.125 61.3828 31.4513 58.5 35.5575 58.5H69.4425C73.5488 58.5 76.875 61.3828 76.875 64.9415V66.2253C76.875 67.0053 76.875 71.5293 73.7625 75.9102C70.5 80.5123 64.1475 84.5 52.5 84.5C40.8525 84.5 34.5 80.509 31.2375 75.9135C28.125 71.5293 28.125 67.0085 28.125 66.2253V64.9415ZM52.5 53.625C56.2296 53.625 59.8065 52.341 62.4437 50.0554C65.0809 47.7698 66.5625 44.6698 66.5625 41.4375C66.5625 38.2052 65.0809 35.1052 62.4437 32.8196C59.8065 30.534 56.2296 29.25 52.5 29.25C48.7704 29.25 45.1935 30.534 42.5563 32.8196C39.9191 35.1052 38.4375 38.2052 38.4375 41.4375C38.4375 44.6698 39.9191 47.7698 42.5563 50.0554C45.1935 52.341 48.7704 53.625 52.5 53.625Z" fill="black"/>
</svg>
