<svg width="41" height="33" viewBox="0 0 41 33" fill="none" xmlns="http://www.w3.org/2000/svg">
<path d="M34.1666 8.25C34.1666 5.269 27.909 2.75 20.4999 2.75C13.0909 2.75 6.83325 5.269 6.83325 8.25V11C6.83325 13.981 13.0909 16.5 20.4999 16.5C27.909 16.5 34.1666 13.981 34.1666 11V8.25ZM20.4999 26.125C13.0909 26.125 6.83325 23.606 6.83325 20.625V24.75C6.83325 27.731 13.0909 30.25 20.4999 30.25C27.909 30.25 34.1666 27.731 34.1666 24.75V20.625C34.1666 23.606 27.909 26.125 20.4999 26.125Z" fill="white"/>
<path d="M34.1666 13.75C34.1666 16.731 27.909 19.25 20.4999 19.25C13.0909 19.25 6.83325 16.731 6.83325 13.75V17.875C6.83325 20.856 13.0909 23.375 20.4999 23.375C27.909 23.375 34.1666 20.856 34.1666 17.875V13.75Z" fill="white"/>
</svg>
