<svg width="44" height="29" viewBox="0 0 44 29" fill="none" xmlns="http://www.w3.org/2000/svg">
<path fill-rule="evenodd" clip-rule="evenodd" d="M22.0002 8.75037C23.4162 8.74967 24.7868 9.20734 25.8696 10.0425C26.9524 10.8776 27.6777 12.0363 27.9171 13.3137C28.1565 14.591 27.8946 15.9048 27.1778 17.0225C26.461 18.1401 25.3355 18.9898 24.0002 19.4211V28.8855H20.0002V19.4211C18.6659 18.9888 17.5415 18.1388 16.8255 17.0212C16.1095 15.9036 15.8481 14.5904 16.0874 13.3135C16.3267 12.0366 17.0513 10.8782 18.1332 10.0429C19.2152 9.20757 20.5848 8.74913 22.0002 8.74854M22.0002 12.4098C22.5307 12.4098 23.0394 12.6027 23.4144 12.946C23.7895 13.2893 24.0002 13.7549 24.0002 14.2404C24.0002 14.7259 23.7895 15.1916 23.4144 15.5349C23.0394 15.8782 22.5307 16.0711 22.0002 16.0711C21.4698 16.0711 20.9611 15.8782 20.586 15.5349C20.2109 15.1916 20.0002 14.7259 20.0002 14.2404C20.0002 13.7549 20.2109 13.2893 20.586 12.946C20.9611 12.6027 21.4698 12.4098 22.0002 12.4098Z" fill="white"/>
<path d="M12.1 5.18054C10.7981 6.36924 9.76562 7.78173 9.06201 9.33683C8.35839 10.8919 7.99748 12.559 8.00001 14.2422C8.00001 18.2274 9.98801 21.788 13.108 24.1385L15.954 21.5317C14.7245 20.6789 13.7275 19.5768 13.0415 18.3121C12.3555 17.0473 11.999 15.6542 12 14.2422C12 11.7159 13.12 9.4276 14.928 7.77088L12.1 5.18054ZM29.072 7.76722C30.0021 8.61666 30.7396 9.62599 31.2421 10.7372C31.7446 11.8484 32.0021 13.0395 32 14.2422C32 17.2188 30.448 19.8622 28.046 21.5336L30.892 24.1404C32.491 22.9392 33.7786 21.428 34.662 19.716C35.5453 18.0039 36.0023 16.1337 36 14.2403C36.0025 12.5571 35.6416 10.8901 34.938 9.335C34.2344 7.7799 33.2019 6.36741 31.9 5.17871L29.072 7.76722Z" fill="white"/>
<path d="M1.80696e-05 14.2423C-0.00369113 11.5969 0.563683 8.9768 1.66955 6.53266C2.77541 4.08852 4.39797 1.86845 6.44401 0L9.27201 2.59034C7.59784 4.11879 6.27022 5.93505 5.36547 7.9347C4.46072 9.93435 3.99667 12.078 4.00001 14.2423C3.99694 16.4063 4.46111 18.5496 5.36585 20.5489C6.2706 22.5482 7.59808 24.3642 9.27201 25.8924L6.44401 28.4809C4.39809 26.6132 2.77557 24.3937 1.6697 21.9502C0.563828 19.5067 -0.00360215 16.8872 1.80696e-05 14.2423ZM37.556 28.4791C39.6018 26.6116 41.2242 24.3925 42.3301 21.9493C43.4359 19.5061 44.0035 16.8869 44 14.2423C44 8.68085 41.538 3.64661 37.556 0.00366099L34.728 2.59217C36.4019 4.12041 37.7294 5.93636 38.6341 7.93568C39.5389 9.935 40.0031 12.0783 40 14.2423C40.0031 16.4063 39.5389 18.5496 38.6341 20.5489C37.7294 22.5482 36.4019 24.3642 34.728 25.8924L37.556 28.4791Z" fill="white"/>
</svg>
