<svg width="105" height="86" viewBox="0 0 105 86" fill="none" xmlns="http://www.w3.org/2000/svg">
<path d="M90.2344 65.6494C92.4902 66.627 94.5239 67.8267 96.3354 69.2485C98.147 70.6704 99.6851 72.2552 100.95 74.0029C102.214 75.7506 103.206 77.6465 103.923 79.6904C104.641 81.7344 105 83.8376 105 86H98.4375C98.4375 83.6598 97.9248 81.453 96.8994 79.3794C95.874 77.3058 94.4727 75.4989 92.6953 73.9585C90.918 72.4181 88.8159 71.1888 86.3892 70.2705C83.9624 69.3522 81.416 68.9079 78.75 68.9375C76.0156 68.9375 73.4692 69.3818 71.1108 70.2705C68.7524 71.1592 66.6675 72.3737 64.856 73.9141C63.0444 75.4544 61.626 77.2762 60.6006 79.3794C59.5752 81.4826 59.0625 83.6895 59.0625 86H52.5C52.5 83.8376 52.8418 81.7344 53.5254 79.6904C54.209 77.6465 55.2002 75.7506 56.499 74.0029C57.7979 72.2552 59.353 70.6704 61.1646 69.2485C62.9761 67.8267 65.0098 66.627 67.2656 65.6494C64.7021 64.0498 62.7026 62.0503 61.2671 59.6509C59.8315 57.2515 59.0967 54.6595 59.0625 51.875C59.0625 49.5348 59.5752 47.328 60.6006 45.2544C61.626 43.1808 63.0273 41.3739 64.8047 39.8335C66.582 38.2931 68.667 37.0638 71.0596 36.1455C73.4521 35.2272 76.0156 34.7829 78.75 34.8125C81.4502 34.8125 83.9966 35.2568 86.3892 36.1455C88.7817 37.0342 90.8667 38.2487 92.644 39.7891C94.4214 41.3294 95.8398 43.1512 96.8994 45.2544C97.959 47.3576 98.4717 49.5645 98.4375 51.875C98.4375 54.6595 97.7197 57.2515 96.2842 59.6509C94.8486 62.0503 92.832 64.0498 90.2344 65.6494ZM78.75 63.25C80.5615 63.25 82.2534 62.9538 83.8257 62.3613C85.3979 61.7689 86.7993 60.9543 88.0298 59.9175C89.2603 58.8807 90.2002 57.681 90.8496 56.3184C91.499 54.9557 91.8408 53.4746 91.875 51.875C91.875 50.305 91.5332 48.8387 90.8496 47.4761C90.166 46.1134 89.2261 44.8989 88.0298 43.8325C86.8335 42.7661 85.4492 41.9515 83.877 41.3887C82.3047 40.8258 80.5957 40.5296 78.75 40.5C76.9385 40.5 75.2466 40.7962 73.6743 41.3887C72.1021 41.9811 70.7007 42.7957 69.4702 43.8325C68.2397 44.8693 67.2998 46.069 66.6504 47.4316C66.001 48.7943 65.6592 50.2754 65.625 51.875C65.625 53.445 65.9668 54.9113 66.6504 56.2739C67.334 57.6366 68.2739 58.8511 69.4702 59.9175C70.6665 60.9839 72.0508 61.7985 73.623 62.3613C75.1953 62.9242 76.9043 63.2204 78.75 63.25ZM52.5 66.8047C51.4062 67.9007 50.415 69.0412 49.5264 70.2261C48.6377 71.411 47.8516 72.6847 47.168 74.0474C45.3564 72.4181 43.1689 71.1592 40.6055 70.2705C38.042 69.3818 35.4443 68.9375 32.8125 68.9375H13.125V12.0625H6.5625V74.625H46.9116C46.4331 75.5433 46.04 76.4764 45.7324 77.4243C45.4248 78.3722 45.1685 79.335 44.9634 80.3125H0V6.375H13.125V0.6875H32.8125C35.8203 0.6875 38.7085 1.0874 41.4771 1.88721C44.2456 2.68701 46.8262 3.88672 49.2188 5.48633C51.5771 3.88672 54.1406 2.68701 56.9092 1.88721C59.6777 1.0874 62.583 0.6875 65.625 0.6875H85.3125V6.375H98.4375V34.8125C96.4551 33.124 94.2676 31.717 91.875 30.5913V12.0625H85.3125V28.4585C84.2188 28.1919 83.125 27.9993 82.0312 27.8809C80.9375 27.7624 79.8438 27.7031 78.75 27.7031V6.375H65.625C63.2324 6.375 60.9082 6.73047 58.6523 7.44141C56.3965 8.15234 54.3457 9.20394 52.5 10.5962V66.8047ZM45.9375 66.2271V10.5962C44.0918 9.23356 42.041 8.19678 39.7852 7.48584C37.5293 6.7749 35.2051 6.40462 32.8125 6.375H19.6875V63.25H32.8125C35.1025 63.25 37.3584 63.5018 39.5801 64.0054C41.8018 64.509 43.9209 65.2495 45.9375 66.2271Z" fill="black"/>
</svg>
