<svg width="40" height="31" viewBox="0 0 40 31" fill="none" xmlns="http://www.w3.org/2000/svg">
<path d="M6.25 0C4.5924 0 3.00269 0.674922 1.83058 1.87629C0.65848 3.07766 0 4.70707 0 6.40606V24.343C0 26.042 0.65848 27.6714 1.83058 28.8728C3.00269 30.0742 4.5924 30.7491 6.25 30.7491H33.75C35.4076 30.7491 36.9973 30.0742 38.1694 28.8728C39.3415 27.6714 40 26.042 40 24.343V6.40606C40 4.70707 39.3415 3.07766 38.1694 1.87629C36.9973 0.674922 35.4076 0 33.75 0H6.25ZM2.5 6.40606C2.5 5.38666 2.89509 4.40902 3.59835 3.6882C4.30161 2.96738 5.25544 2.56242 6.25 2.56242H33.75C34.7446 2.56242 35.6984 2.96738 36.4016 3.6882C37.1049 4.40902 37.5 5.38666 37.5 6.40606V24.343C37.5 25.3624 37.1049 26.3401 36.4016 27.0609C35.6984 27.7817 34.7446 28.1867 33.75 28.1867H6.25C5.25544 28.1867 4.30161 27.7817 3.59835 27.0609C2.89509 26.3401 2.5 25.3624 2.5 24.343V6.40606ZM6.25 5.12485C5.91848 5.12485 5.60054 5.25983 5.36612 5.50011C5.1317 5.74038 5 6.06626 5 6.40606C5 6.74586 5.1317 7.07174 5.36612 7.31201C5.60054 7.55229 5.91848 7.68727 6.25 7.68727H18.75C19.0815 7.68727 19.3995 7.55229 19.6339 7.31201C19.8683 7.07174 20 6.74586 20 6.40606C20 6.06626 19.8683 5.74038 19.6339 5.50011C19.3995 5.25983 19.0815 5.12485 18.75 5.12485H6.25ZM6.25 10.2497C5.91848 10.2497 5.60054 10.3847 5.36612 10.625C5.1317 10.8652 5 11.1911 5 11.5309C5 11.8707 5.1317 12.1966 5.36612 12.4369C5.60054 12.6771 5.91848 12.8121 6.25 12.8121H26.25C26.5815 12.8121 26.8995 12.6771 27.1339 12.4369C27.3683 12.1966 27.5 11.8707 27.5 11.5309C27.5 11.1911 27.3683 10.8652 27.1339 10.625C26.8995 10.3847 26.5815 10.2497 26.25 10.2497H6.25ZM7.5 17.937C6.83696 17.937 6.20107 18.2069 5.73223 18.6875C5.26339 19.168 5 19.8198 5 20.4994V23.0618C5 23.7414 5.26339 24.3932 5.73223 24.8737C6.20107 25.3543 6.83696 25.6242 7.5 25.6242H17.5C18.163 25.6242 18.7989 25.3543 19.2678 24.8737C19.7366 24.3932 20 23.7414 20 23.0618V20.4994C20 19.8198 19.7366 19.168 19.2678 18.6875C18.7989 18.2069 18.163 17.937 17.5 17.937H7.5Z" fill="white"/>
</svg>
