<svg width="105" height="91" viewBox="0 0 105 91" fill="none" xmlns="http://www.w3.org/2000/svg">
<path d="M67.4461 37.4451L47.7586 26.0701C47.2643 25.7843 46.6898 25.6202 46.0963 25.5952C45.5028 25.5703 44.9126 25.6855 44.3888 25.9286C43.865 26.1716 43.4271 26.5334 43.122 26.9753C42.8168 27.4171 42.6559 27.9225 42.6562 28.4375V51.1875C42.6559 51.7025 42.8168 52.2078 43.122 52.6497C43.4271 53.0916 43.865 53.4534 44.3888 53.6964C44.9126 53.9395 45.5028 54.0547 46.0963 54.0298C46.6898 54.0048 47.2643 53.8407 47.7586 53.5549L67.4461 42.1799C67.8962 41.9203 68.2653 41.5684 68.5206 41.1554C68.7759 40.7423 68.9094 40.2811 68.9094 39.8125C68.9094 39.3439 68.7759 38.8827 68.5206 38.4696C68.2653 38.0566 67.8962 37.7047 67.4461 37.4451ZM49.2188 45.8732V33.7695L59.7105 39.8125L49.2188 45.8732ZM88.5938 14.2188H16.4062C14.6658 14.2188 12.9966 14.818 11.7659 15.8846C10.5352 16.9512 9.84375 18.3978 9.84375 19.9062V59.7188C9.84375 61.2272 10.5352 62.6738 11.7659 63.7404C12.9966 64.807 14.6658 65.4062 16.4062 65.4062H88.5938C90.3342 65.4062 92.0034 64.807 93.2341 63.7404C94.4648 62.6738 95.1562 61.2272 95.1562 59.7188V19.9062C95.1562 18.3978 94.4648 16.9512 93.2341 15.8846C92.0034 14.818 90.3342 14.2188 88.5938 14.2188ZM88.5938 59.7188H16.4062V19.9062H88.5938V59.7188ZM95.1562 73.9375C95.1562 74.6917 94.8105 75.415 94.1952 75.9483C93.5798 76.4816 92.7452 76.7812 91.875 76.7812H13.125C12.2548 76.7812 11.4202 76.4816 10.8048 75.9483C10.1895 75.415 9.84375 74.6917 9.84375 73.9375C9.84375 73.1833 10.1895 72.46 10.8048 71.9267C11.4202 71.3934 12.2548 71.0938 13.125 71.0938H91.875C92.7452 71.0938 93.5798 71.3934 94.1952 71.9267C94.8105 72.46 95.1562 73.1833 95.1562 73.9375Z" fill="black"/>
</svg>
